# xmcd
#
# Track frame offsets:
#	150
#	12823
#	28781
#	53368
#	65171
#	93583
#	114068
#	148905
#	171628
#	182325
#	202200
#	221480
#	242472
#	260797
#	278797
#	308107
#
# Disc length: 4457 seconds
#
# Revision: 0
# Processed by: cddbd v1.5.2PL0 Copyright (c) Steve Scherf et al.
# Submitted via: EasyCDDAExtractor 16.0.6.1
#
DISCID=ea116710
DTITLE=Συλλογικός δίσκος - Κρήτη χρυσή συλλογή 2
DYEAR=2005
DGENRE=Κρητική
TTITLE0=Γαργανουράκης Χαράλαμπος - Άστρα μη με μαλώνετε
TTITLE1=Σκουλάς Βασίλης - Είχα μιά μικρή αγάπη
TTITLE2=Βακάκης Δημήτρης - Μέσα στο γλυκοχάραμα
TTITLE3=Βακάκης Δημήτρης - Μεταξοδερματένια μου
TTITLE4=Πυροβολάκης Μανώλης - Στερνή μου αγάπη
TTITLE5=Κορνηλάκης Διονύσης - Μπροστά στο γέλιο σου θεά
TTITLE6=Δερέμπεη Ειρήνη - Εποστειρώξαν τα νερά
TTITLE7=Χατζιδάκις Νεκτάριος - Το δάκρυ μου
TTITLE8=Σταυριανουδάκης Κυριάκος - Αρχοντομαθημένη μου
TTITLE9=Σπυριδάκης Ζαχαρίας - Κι α τζι στερούμαι τσι χαρές
TTITLE10=Καραβηράκης Μανώλης-Καραβηράκης Νίκος - Πουλί μου μαδαρίτικο
TTITLE11=Καραβηράκης Μανώλης-Καραβηράκης Νίκος - Μελωδίες Ανατολικής Κρήτης
TTITLE12=Καραβηράκης Μανώλης-Καραβηράκης Νίκος - Μαύρα μάτια 
TTITLE13=Καραβηράκης Μανώλης-Καραβηράκης Νίκος - Στη Γραμπούσα, στ' ακρωτήρι
TTITLE14=Καραβηράκης Μανώλης-Καραβηράκης Νίκος - Τραγούδι του γάμου
TTITLE15=Καραβηράκης Μανώλης-Καραβηράκης Νίκος - Ερωτόκριτος
EXTD=
EXTT0=
EXTT1=
EXTT2=
EXTT3=
EXTT4=
EXTT5=
EXTT6=
EXTT7=
EXTT8=
EXTT9=
EXTT10=
EXTT11=
EXTT12=
EXTT13=
EXTT14=
EXTT15=
PLAYORDER=
